<svg width="40" height="48" viewBox="0 0 40 48" fill="none" xmlns="http://www.w3.org/2000/svg">
<path d="M6 0C5.637 0 5.30295 0.197625 5.12695 0.515625L0.412109 9H16.748L26.5703 0H6ZM28.2285 1.19336L18.7188 9.9082L39 22.8145L39.3828 22.5703L28.2285 1.19336ZM2.40234 11L11.3691 13.9297L14.5664 11H2.40234ZM18 11.8223V16.0957L31.8047 20.6074L18 11.8223ZM16 12.4004L13.5527 14.6426L16 15.4434V12.4004ZM11.8613 16.1934L3.3418 24L11.8613 31.8066L16 30.4531V17.5469L11.8613 16.1934ZM18 18.1992V29.8008L35.7539 24L18 18.1992ZM39 25.1855L18.7188 38.0918L28.2285 46.8066L39.3828 25.4297L39 25.1855ZM31.8047 27.3926L18 31.9043V36.1777L31.8047 27.3926ZM16 32.5566L13.5527 33.3574L16 35.5996V32.5566ZM11.3691 34.0703L2.40234 37H14.5664L11.3691 34.0703ZM0.412109 39L5.12695 47.4844C5.30295 47.8024 5.637 48 6 48H26.5703L16.748 39H0.412109Z" fill="white"/>
</svg>
