<svg width="23" height="22" viewBox="0 0 23 22" fill="none" xmlns="http://www.w3.org/2000/svg">
<path d="M7.56836 0.847656L2.99414 1.76367L0.994141 2.16211V3.24805V21.9824H1.99414C4.30114 21.9824 6.99414 21.1964 6.99414 18.9824V13.7461L9.41406 17.9824H12.2812H14.5859L15.123 17.0371L16.9941 13.7617V19.9824L17.9941 21.9824H22.9941V3.25V1.98242H20.9941H16.377L12.0957 10.5469L7.56836 0.847656ZM6.42188 3.11719L12.4258 15.9824H10.5742L3.55273 3.69141L6.42188 3.11719ZM17.6133 3.98242H20.2715L14.0879 14.8164L13.1738 12.8594L17.6133 3.98242ZM2.99414 6.74805L4.99414 10.248V13.9746L2.99414 19.9785V6.74805ZM20.9941 6.75391V19.9824H18.9941C20.2701 13.3684 20.9941 6.75391 20.9941 6.75391Z" fill="white"/>
</svg>
