<svg width="42" height="43" viewBox="0 0 42 43" fill="none" xmlns="http://www.w3.org/2000/svg">
<path d="M10 0.98999C4.486 0.98999 0 5.47599 0 10.99V32.99C0 38.504 4.486 42.99 10 42.99H32C37.514 42.99 42 38.504 42 32.99V10.99C42 5.47599 37.514 0.98999 32 0.98999H10V0.98999ZM35.6 6.00399C36.103 5.95399 36.576 6.29099 36.682 6.79299C37.795 12.059 36.599 22.996 24.113 26.709C22.417 27.213 20.863 27.619 19.359 28.012C12.579 29.781 8.483 30.848 6.986 37.229C6.93167 37.4617 6.79556 37.6671 6.60248 37.8079C6.40939 37.9487 6.17217 38.0154 5.934 37.996C5.69573 37.9769 5.47221 37.873 5.30411 37.703C5.13601 37.5331 5.03448 37.3085 5.018 37.07C5.007 36.921 4.147 22.128 19.623 18.217C33.615 14.683 34.703 8.73599 34.703 6.99799C34.7032 6.75072 34.7949 6.51229 34.9606 6.32872C35.1263 6.14515 35.354 6.02946 35.6 6.00399V6.00399ZM34.879 12.134C34.7405 12.3216 34.5964 12.505 34.447 12.684C32.898 15.347 29.566 18.474 22.426 20.299C15.465 22.094 12.124 24.304 10.141 26.498C9.13747 27.8857 8.36266 29.4252 7.846 31.058C7.995 30.896 8.162 30.756 8.32 30.605C10.918 27.175 16.065 24.714 21 24C26.383 23.221 29.9 21.065 31.61 19.756C33.607 17.373 34.56 14.629 34.879 12.135V12.134Z" fill="white"/>
</svg>
