<svg width="22" height="24" viewBox="0 0 22 24" fill="none" xmlns="http://www.w3.org/2000/svg">
<path d="M21.3949 6.00001C21.2279 5.71001 20.9969 5.45701 20.7429 5.31001L11.9269 0.220012C11.4179 -0.0739883 10.5869 -0.0739883 10.0789 0.220012L1.26089 5.31001C0.752891 5.60301 0.337891 6.32301 0.337891 6.91001V17.09C0.337891 17.384 0.441891 17.71 0.608891 18C0.775891 18.29 1.00689 18.543 1.26089 18.69L10.0769 23.78C10.5849 24.073 11.4169 24.073 11.9249 23.78L20.7409 18.69C20.9949 18.543 21.2259 18.29 21.3929 18C21.5599 17.71 21.6629 17.384 21.6629 17.09V6.91001C21.6659 6.61601 21.5629 6.29001 21.3949 6.00001V6.00001ZM11.0009 19.11C7.08089 19.11 3.89189 15.92 3.89189 12C3.89189 8.08001 7.08189 4.89001 11.0019 4.89001C12.2491 4.89238 13.4738 5.2217 14.554 5.84513C15.6341 6.46856 16.532 7.3643 17.1579 8.44301L14.0819 10.223C13.7692 9.68275 13.3201 9.23401 12.7796 8.92166C12.2391 8.6093 11.6261 8.44425 11.0019 8.44301C10.0588 8.44381 9.15448 8.81882 8.48759 9.48571C7.82069 10.1526 7.44569 11.0569 7.44489 12C7.44621 12.9426 7.82132 13.8462 8.48794 14.5127C9.15456 15.1791 10.0583 15.554 11.0009 15.555C11.6249 15.5537 12.2376 15.3888 12.778 15.0768C13.3185 14.7649 13.7677 14.3167 14.0809 13.777L17.1589 15.557C16.5326 16.6359 15.6344 17.5317 14.5539 18.1551C13.4734 18.7785 12.2484 19.1078 11.0009 19.11V19.11ZM18.1109 12.395H17.3209V13.185H16.5309V12.395H15.7409V11.605H16.5309V10.815H17.3209V11.605H18.1109V12.395ZM21.0729 12.395H20.2829V13.185H19.4929V12.395H18.7029V11.605H19.4929V10.815H20.2829V11.605H21.0729V12.395Z" fill="white"/>
</svg>
