<svg width="42" height="46" viewBox="0 0 42 46" fill="none" xmlns="http://www.w3.org/2000/svg">
<path d="M21 0.00195312C20.2846 0.00195312 19.5701 0.180562 18.9316 0.539062L2.08984 10.0039C0.801844 10.7279 0 12.0811 0 13.5371V32.4648C0 33.9198 0.800844 35.2721 2.08984 35.9961L18.9316 45.4609C19.5696 45.8189 20.285 45.998 21 45.998C21.715 45.998 22.4304 45.8199 23.0684 45.4609L39.9102 35.998C41.1992 35.272 42 33.9179 42 32.4629V13.5371C42 12.0811 41.1982 10.7279 39.9102 10.0039L23.0684 0.539062C22.4304 0.180562 21.7154 0.00195312 21 0.00195312ZM21 11C24.78 11 28.276 12.7542 30.543 15.7402L26.1621 18.2773C24.8441 16.8373 22.973 16 21 16C17.14 16 14 19.14 14 23C14 26.86 17.14 30 21 30C22.973 30 24.8441 29.1627 26.1621 27.7227L30.543 30.2598C28.276 33.2458 24.78 35 21 35C14.383 35 9 29.617 9 23C9 16.383 14.383 11 21 11ZM31 18H33V20H35V18H37V20H39V22H37V24H39V26H37V28H35V26H33V28H31V26H29V24H31V22H29V20H31V18ZM33 22V24H35V22H33Z" fill="white"/>
</svg>
