<svg width="24" height="16" viewBox="0 0 24 16" fill="none" xmlns="http://www.w3.org/2000/svg">
<path d="M8.859 3.88905C9.013 2.02605 10.482 0.774053 12.203 0.770053C13.937 0.774053 15.189 2.02605 15.232 3.88905H8.859ZM20.969 15.5961C21.771 14.7361 22.489 13.7241 23.141 12.5661L19.525 10.7591C18.255 12.8231 16.398 14.7241 13.831 14.7361C10.093 14.7241 8.625 11.5281 8.633 7.41405H22.599C22.618 6.95005 22.618 6.73405 22.599 6.51005C22.69 4.06305 22.041 2.00605 20.862 0.404053L20.855 0.409053H24V15.5951H20.961L20.969 15.5961ZM3.763 15.5951C1.901 13.6201 0.811 10.8941 0.813 7.64005C0.811 4.76305 1.715 2.29005 3.269 0.408053H0V15.5951H3.761H3.763Z" fill="white"/>
</svg>
